<svg width="24" height="25" viewBox="0 0 24 25" fill="none" xmlns="http://www.w3.org/2000/svg">
<path fill-rule="evenodd" clip-rule="evenodd" d="M6.18842 21.1667C5.52842 21.1667 4.92342 20.8183 4.60259 20.25L2.43925 16.4917C2.10925 15.9233 2.11842 15.2267 2.44842 14.6583L8.26009 4.6575C8.59009 4.09833 9.19509 3.75 9.84592 3.75H11.5H11.9909H14.1453C14.7961 3.75 15.4011 4.09833 15.7311 4.6575L21.5428 14.6583C21.8728 15.2267 21.882 15.9233 21.552 16.4917L19.3886 20.25C19.0678 20.8183 18.4628 21.1667 17.8028 21.1667H12.0003L11.9909 21.1323V21.1667H6.18842ZM11.5 19.3333H11.9909H17.8028L19.957 15.5842L14.1453 5.58333H12.0003L11.9909 5.54899V5.58333H9.84592L4.03425 15.5842L6.18842 19.3333H11.5ZM7.64592 17.0417L6.97675 15.8775L11.1751 8.5625H11.5H11.9909H12.8161L17.0145 15.8775L16.3453 17.0417H11.9909H11.5H7.64592ZM11.5 15.2083H11.9909H14.512L12.0003 10.7992L11.9909 10.7573V10.7992L9.47925 15.2083H11.5Z" fill="black" fill-opacity="0.54"/>
</svg>
